<svg width="44" height="49" viewBox="0 0 44 49" fill="none" xmlns="http://www.w3.org/2000/svg">
<path d="M21.3284 36.6074H24.1213C23.774 36.2474 23.4558 35.8692 23.1676 35.4673C23.0417 35.2894 22.9293 35.1014 22.8157 34.9185C22.7748 34.8506 22.7248 34.7862 22.6872 34.719C22.5372 34.4681 22.4048 34.2129 22.2795 33.9533L19.0555 34.719V12.9645V12.8025L25.4749 11.2756L32.981 9.49058V11.2756V12.9645V18.6334C33.2361 18.7064 33.4887 18.7895 33.7393 18.885C33.9957 18.9833 34.247 19.091 34.4976 19.2147C34.6897 19.3101 34.8825 19.407 35.0708 19.5161C35.598 19.827 36.1043 20.2008 36.5867 20.6295V11.2742H34.4976V7.40189L18.2927 11.2561L2.0911 7.40189V11.2742H0V36.6052H15.2583V39.1386H12.2252V40.8274H24.3576V39.1386H21.3245V36.6074H21.3284ZM3.61024 11.2756V9.49058L11.1164 11.2756L17.5344 12.8025V12.9645V34.7183L3.60764 31.407V12.9659L3.61024 11.2756ZM20.8869 16.6459L30.873 12.9725L31.3496 14.5753L21.3628 18.248L20.8869 16.6459ZM15.2278 18.248L5.23975 14.5753L5.71432 12.9725L15.7017 16.6459L15.2278 18.248ZM15.2278 22.7761L5.23975 19.1033L5.71432 17.5005L15.7017 21.1739L15.2278 22.7761ZM5.72406 22.0263L15.7056 25.6991L15.231 27.3026L5.24949 23.6292L5.72406 22.0263ZM5.72406 26.5522L15.7056 30.2264L15.231 31.8278L5.24949 28.155L5.72406 26.5522ZM38.6213 34.6561L38.5084 34.552L38.2656 34.8766L37.3326 34.0061C38.4077 32.2681 38.9349 30.2032 38.7596 28.0741C38.5973 26.0439 37.815 24.2032 36.5854 22.7392C36.3517 22.4587 36.1297 22.1702 35.8602 21.9222C35.6116 21.6901 35.3357 21.5029 35.0695 21.3084C34.8799 21.1718 34.6949 21.0359 34.4963 20.9166C34.2502 20.7698 33.9957 20.6433 33.738 20.5261C33.4887 20.4119 33.2374 20.3165 32.9797 20.2312C32.2247 19.9796 31.4411 19.8191 30.6471 19.8191C28.2152 19.8191 25.9345 21.0113 24.3803 23.0869C22.9845 24.9515 22.3243 27.307 22.5184 29.721C22.634 31.1294 23.0605 32.4394 23.7032 33.6135C23.8454 33.8695 23.9875 34.1283 24.1505 34.3691C24.2803 34.5606 24.4271 34.7385 24.5699 34.9185C24.6166 34.9792 24.6731 35.0349 24.7263 35.0949C24.9516 35.3617 25.162 35.6357 25.4165 35.8729C25.7125 36.1505 26.0351 36.3826 26.3623 36.6074C27.6406 37.4865 29.1124 37.9782 30.6257 37.9782C32.1734 37.9782 33.6588 37.4931 34.9351 36.6074C35.4551 36.2474 35.9362 35.8186 36.3777 35.3306L36.5822 35.52L37.2898 36.1765L37.047 36.4997L37.16 36.6038L42.5412 41.5989L43.9987 39.6533L38.6213 34.6561ZM35.0708 34.3445C34.8689 34.5484 34.6651 34.745 34.4469 34.9185C33.3407 35.7875 32.0202 36.2893 30.6309 36.2893C29.2649 36.2893 27.9445 35.7912 26.8304 34.9185C26.7272 34.8361 26.6129 34.7616 26.511 34.6727C26.4753 34.6358 26.4279 34.6134 26.389 34.5751C26.1903 34.3922 26.0274 34.1738 25.8501 33.9664C25.6482 33.7307 25.4619 33.4928 25.2938 33.2318C24.5933 32.1647 24.1434 30.9168 24.0336 29.5677C23.8759 27.602 24.4108 25.6839 25.5456 24.1671C26.8096 22.4767 28.6729 21.508 30.6484 21.508C31.4476 21.508 32.239 21.6786 32.981 21.9909C33.2413 22.1008 33.4919 22.2374 33.7393 22.3828C34.0042 22.5375 34.2528 22.7226 34.4976 22.9163C34.6274 23.0212 34.7683 23.1065 34.891 23.2221C34.9578 23.285 35.0065 23.361 35.0702 23.4239C35.7057 24.0615 36.2193 24.8076 36.5861 25.6398C36.9386 26.443 37.1755 27.3106 37.2495 28.2273C37.3606 29.5967 37.1145 30.9284 36.5861 32.1293C36.3543 32.6556 36.0829 33.1653 35.7336 33.6316C35.5363 33.8977 35.298 34.1117 35.0708 34.3445Z" fill="#276955"/>
</svg>
