<svg width="45" height="42" viewBox="0 0 45 42" fill="none" xmlns="http://www.w3.org/2000/svg">
<path d="M5.00163 9.30959L0 8.07595L1.43707 3L10.6269 5.26654V8.92527H45L39.1283 26.7683H10.6269V30.7973H37.9373L36.4076 35.8726H32.6713C33.12 36.461 33.3864 37.1789 33.3864 37.9559C33.3864 39.9442 31.6596 41.556 29.5294 41.556C27.3991 41.556 25.6719 39.9442 25.6719 37.9559C25.6719 37.1789 25.9385 36.461 26.3871 35.8726H15.7954C16.2441 36.461 16.5106 37.1789 16.5106 37.9559C16.5106 39.9442 14.7838 41.556 12.6535 41.556C10.5232 41.556 8.79606 39.9442 8.79606 37.9559C8.79606 37.1789 9.0627 36.461 9.51141 35.8726H7.81427H5.00163V9.30959Z" fill="#276955"/>
</svg>
