<svg width="67" height="62" viewBox="0 0 67 62" fill="none" xmlns="http://www.w3.org/2000/svg">
<g clip-path="url(#clip0_2_4)">
<path d="M62.2201 21.422C61.9492 19.5372 61.911 16.291 63.8028 15.201C63.8366 15.181 63.8617 15.1522 63.8913 15.1274C65.438 14.6696 66.5083 14.0272 65.6681 13.1627L42.8532 6.80136L5.91058 11.5543C5.91058 11.5543 1.68019 12.1138 2.0581 18.1958C2.26325 21.506 3.38519 23.1316 4.36635 23.9317L1.33487 24.7771C0.493475 25.6416 1.56362 26.2842 3.11045 26.7412C3.13984 26.7668 3.16464 26.7954 3.19903 26.8154C5.08958 27.9064 5.05319 31.1522 4.78125 33.0373C-2.01053 34.8219 0.427491 35.4035 0.427491 35.4035L1.91734 35.7371C0.869385 36.6134 -0.171366 38.2751 0.0235874 41.4268C0.401697 47.5076 3.87647 47.9273 3.87647 47.9273L28.0515 55.1986L64.5408 47.0199C64.5408 47.0199 66.9796 46.4374 60.186 44.6526C59.9129 42.7705 59.8749 39.525 61.7699 38.4313C61.8046 38.4119 61.83 38.3825 61.8582 38.358C63.4051 37.9003 64.4744 37.2584 63.634 36.3939L62.048 35.9508C63.1057 35.3605 64.6946 33.8179 64.9435 29.8109C65.1153 27.0547 64.3382 25.4405 63.4389 24.4901L66.5737 23.7881C66.5739 23.7892 69.0127 23.2068 62.2201 21.422ZM31.699 21.3441L37.8352 20.1771L58.5718 16.2337L61.6613 15.6457C60.6741 17.3176 60.7155 19.6057 60.8789 21.0763C60.9147 21.409 60.9558 21.7128 60.9958 21.9437L57.6142 22.7218L31.4411 28.747L31.699 21.3441ZM5.34072 27.2619L8.42978 27.8499L28.3444 31.6383L30.0842 31.968L35.3016 32.9603L35.5589 40.3634L8.65853 34.1702L6.00656 33.5604C6.04555 33.3291 6.08674 33.0256 6.12413 32.692C6.28649 31.2225 6.32868 28.9338 5.34072 27.2619ZM4.1406 17.903C4.10321 16.2853 4.41474 15.1154 5.04439 14.5207C5.44509 14.141 5.91798 14.062 6.2423 14.062C6.41366 14.062 6.53703 14.084 6.54543 14.084L22.463 18.8861L30.4045 21.2821L30.144 28.7368L7.86492 22.9568L6.6892 22.652C6.64601 22.6408 6.58742 22.633 6.54223 22.6311C6.45045 22.625 4.24778 22.4374 4.1406 17.903ZM28.1091 51.9689L4.65488 45.884C4.61149 45.8723 4.55351 45.8645 4.50832 45.8625C4.41494 45.8568 2.21127 45.6693 2.10469 41.1361C2.0667 39.5163 2.37983 38.3475 3.00828 37.7522C3.40998 37.3726 3.88307 37.2935 4.20679 37.2935C4.37855 37.2935 4.50152 37.3148 4.51052 37.3148C4.51052 37.3148 4.51152 37.3148 4.51052 37.3148L28.368 44.514L28.1091 51.9689ZM58.8427 44.3073C58.8797 44.6411 58.9209 44.9444 58.9609 45.1757L29.4056 51.9795L29.6639 44.5764L35.9826 43.3742L36.9158 43.5831L40.4133 42.5312L56.5357 39.4654L59.6264 38.877C58.6382 40.5488 58.6792 42.8378 58.8427 44.3073ZM60.4708 34.2463C60.417 34.2474 60.3632 34.254 60.3126 34.2688L58.0835 34.8463L36.859 40.3536L36.5995 32.8989L43.563 30.7971L60.4244 25.7086C60.4266 25.7076 61.3114 25.5258 61.9608 26.1369C62.5895 26.7316 62.9014 27.9016 62.8646 29.5193C62.7546 34.0522 60.5509 34.2405 60.4708 34.2463Z" fill="#41A58D"/>
</g>
<defs>
<clipPath id="clip0_2_4">
<rect width="67" height="62" fill="white"/>
</clipPath>
</defs>
</svg>
